# xmcd
#
# Track frame offsets: 
#        150
#        14677
#        25736
#        47468
#        68541
#        81578
#        98691
#        125583
#        136598
#
# Disc length: 1986 seconds
#
# Revision: 0
# Processed by: cddbd v1.5.2PL0 Copyright (c) Steve Scherf et al.
# Submitted via: ExactAudioCopy v0.95a5
#
DISCID=6b07c009
DTITLE=Wales Road - Beyond the Shadow of Doubt
DYEAR=2011
DGENRE=Blues
TTITLE0=Take My Life
TTITLE1=Super Hero
TTITLE2=Time Will Tell
TTITLE3=I Need You
TTITLE4=Turn Your Eyes on Jesus
TTITLE5=The Old Rugged Cross
TTITLE6=Finish What You Started
TTITLE7=Super Hero (Acoustic)
TTITLE8=I Need You (Acoustic)
EXTD=
EXTT0=
EXTT1=
EXTT2=
EXTT3=
EXTT4=
EXTT5=
EXTT6=
EXTT7=
EXTT8=
PLAYORDER=
